<?xml version="1.0" encoding="UTF-8"?>
<svg version="1.1" xmlns="http://www.w3.org/2000/svg" width="621" height="402">
<path d="M0 0 C3 1.6875 3 1.6875 5 4 C5.125 6.64453125 5.125 6.64453125 5 9 C5.59683594 9.02578125 6.19367188 9.0515625 6.80859375 9.078125 C31.88494002 10.71758895 55.172369 21.31413943 73 39 C73.86625 39.825 74.7325 40.65 75.625 41.5 C76.40875 42.325 77.1925 43.15 78 44 C78.58007812 44.59683594 79.16015625 45.19367188 79.7578125 45.80859375 C96.63132506 63.84009246 108 89.09122812 108 114 C34.08 114 -39.84 114 -116 114 C-116 96.76242742 -110.66533644 78.35913488 -101 64 C-100.38125 62.845 -99.7625 61.69 -99.125 60.5 C-96.34034721 55.58044675 -92.59938433 51.33466712 -89 47 C-88.48179687 46.35675781 -87.96359375 45.71351563 -87.4296875 45.05078125 C-70.13122704 24.01850008 -44.5627925 12.40110899 -18 9 C-16.33358117 8.97125868 -14.6662541 8.9629183 -13 9 C-13.103125 8.2575 -13.20625 7.515 -13.3125 6.75 C-13 4 -13 4 -11 1.6875 C-7.16673384 -0.46871221 -4.30367733 -0.85900011 0 0 Z " fill="#050505" transform="translate(319,170)"/>
<path d="M0 0 C1.30538272 -0.00483667 1.30538272 -0.00483667 2.63713682 -0.00977105 C3.59383382 -0.00822245 4.55053082 -0.00667385 5.53621864 -0.00507832 C6.55205863 -0.00734387 7.56789861 -0.00960943 8.61452162 -0.01194364 C12.0346092 -0.01829778 15.45465729 -0.01745337 18.87475014 -0.01662922 C21.32025135 -0.01961983 23.7657521 -0.02302212 26.21125221 -0.02680683 C32.17424699 -0.03474042 38.13722612 -0.03786192 44.10022472 -0.03841921 C48.94660345 -0.03889412 53.79297891 -0.04094762 58.63935661 -0.04411983 C72.37535008 -0.05292798 86.11133573 -0.05753897 99.84733205 -0.05678936 C100.58808412 -0.0567494 101.32883619 -0.05670945 102.09203529 -0.05666828 C102.83369032 -0.0566274 103.57534534 -0.05658652 104.33947475 -0.0565444 C116.36042561 -0.05613791 128.38134514 -0.06570786 140.40228693 -0.07980665 C152.74101369 -0.09416413 165.07972516 -0.10107718 177.41846049 -0.10021287 C184.34743994 -0.09988068 191.27638657 -0.10263747 198.20535851 -0.11339092 C204.72074905 -0.12343758 211.236082 -0.12316699 217.7514801 -0.11587429 C220.14564363 -0.11482557 222.53981142 -0.11720828 224.93396759 -0.12323475 C228.19673083 -0.13091701 231.45925189 -0.12633478 234.72200966 -0.11860371 C235.67424522 -0.12374727 236.62648078 -0.12889083 237.60757196 -0.13419026 C243.30177984 -0.10427892 247.37874355 0.27958116 252.00609779 3.87863445 C254.25573129 6.77102038 254.68423812 8.46379116 254.75609779 12.12863445 C253.75609779 15.81613445 253.75609779 15.81613445 251.75609779 19.12863445 C246.01920508 22.36158051 241.03574176 22.55579555 234.546381 22.50958538 C233.532618 22.51426535 232.518855 22.51894532 231.47437191 22.52376711 C228.08507366 22.53571155 224.69618014 22.52626178 221.30687904 22.51681805 C218.87388308 22.52088398 216.44088895 22.52622598 214.00789833 22.53274822 C208.09020198 22.54500511 202.17261033 22.54321464 196.25491691 22.5345103 C191.4443981 22.52772815 186.63391127 22.52681933 181.82338905 22.53008175 C181.13806896 22.53054145 180.45274886 22.53100115 179.74666148 22.53147478 C178.35433633 22.53243398 176.96201119 22.53340662 175.56968606 22.53439255 C162.52162588 22.54294198 149.47362899 22.53311934 136.42557919 22.51699145 C125.23591568 22.50358866 114.04634555 22.50591688 102.85668373 22.51974773 C89.85450612 22.53581146 76.85238394 22.54211805 63.85019779 22.53291094 C62.46306738 22.53195532 61.07593696 22.53101221 59.68880653 22.53008175 C58.66513236 22.52938751 58.66513236 22.52938751 57.6207779 22.52867924 C52.81745178 22.52609173 48.01416089 22.5304552 43.21084023 22.53752041 C36.74296197 22.54682512 30.27521848 22.54017638 23.80735588 22.52283764 C21.43338374 22.51887035 19.05939677 22.52001096 16.68543053 22.52662563 C13.44535806 22.53482131 10.20585102 22.5245428 6.96581459 22.50958538 C5.55612892 22.51962363 5.55612892 22.51962363 4.11796474 22.52986467 C-1.4144199 22.48031566 -5.38715558 21.86558643 -10.24390221 19.12863445 C-12.39997468 15.55763941 -13.24390221 13.17164215 -13.24390221 9.00363445 C-11.97124819 5.34475417 -10.19909336 3.59129375 -7.24390221 1.12863445 C-4.47900674 0.20700263 -2.8495431 0.0026673 0 0 Z " fill="#1E1E1E" transform="translate(194.2439022064209,288.8713655471802)"/>
<path d="M0 0 C120.78 0 241.56 0 366 0 C366 1.65 366 3.3 366 5 C245.22 5 124.44 5 0 5 C0 3.35 0 1.7 0 0 Z " fill="#5B5B5B" transform="translate(132,316)"/>
<path d="M0 0 C2.375 0.6875 2.375 0.6875 3.375 1.6875 C3.75 4.5 3.75 4.5 3.375 7.6875 C1.7353279 9.05389342 0.06432444 10.38299301 -1.625 11.6875 C-8.91790579 19.83676973 -14.47681765 30.16093736 -15.25 41.25 C-14.85085817 47.40818826 -12.02688343 53.0896145 -9.625 58.6875 C-8.70699444 60.87443846 -7.79026135 63.06191164 -6.875 65.25 C-6.26398438 66.67505859 -6.26398438 66.67505859 -5.640625 68.12890625 C-2.58286759 75.8321028 -3.30913276 82.21213386 -6.3046875 89.84765625 C-10.31893924 98.48186043 -15.81696251 104.34049927 -23.625 109.6875 C-27.5 107.8125 -27.5 107.8125 -28.625 106.6875 C-28.94921875 104.39453125 -28.94921875 104.39453125 -28.625 101.6875 C-26.83203125 99.51171875 -26.83203125 99.51171875 -24.4375 97.375 C-19.32438916 92.51955774 -15.64471664 88.12904366 -13.625 81.3125 C-13.625 72.63235226 -17.75683048 64.78027825 -21.22265625 56.984375 C-25.32646217 47.33643017 -26.63900774 36.88401944 -22.66015625 26.890625 C-18.68172393 18.42331999 -14.16463639 10.47752788 -7.625 3.6875 C-6.965 3.6875 -6.305 3.6875 -5.625 3.6875 C-5.625 3.0275 -5.625 2.3675 -5.625 1.6875 C-2.625 -0.3125 -2.625 -0.3125 0 0 Z " fill="#323232" transform="translate(281.625,71.3125)"/>
<path d="M0 0 C2.25 0.8125 2.25 0.8125 3.25 1.8125 C3.625 4.5625 3.625 4.5625 3.25 7.8125 C1.1875 10.0625 1.1875 10.0625 -0.1875 11.2890625 C-8.2068083 19.1078881 -12.84485555 29.2400621 -13.25 40.375 C-13.02989019 46.60410774 -11.46898657 51.2670897 -8.75 56.8125 C-7.68572347 59.12418293 -6.62328844 61.43671437 -5.5625 63.75 C-5.05332031 64.83152344 -4.54414063 65.91304688 -4.01953125 67.02734375 C-0.82166872 74.04296217 -0.39056805 82.13074901 -2.55078125 89.5703125 C-6.11368195 97.18585969 -11.83413677 103.89663677 -17.75 109.8125 C-21.375 109.4375 -21.375 109.4375 -24.75 108.8125 C-25.38769531 107.01293945 -25.38769531 107.01293945 -25.75 104.8125 C-24.07795722 102.3785512 -22.41745278 100.22434038 -20.5 98 C-14.80456123 91.32133331 -11.0797058 85.49167369 -11.37207031 76.40429688 C-12.03504442 71.85769922 -13.99683789 68.09034056 -16.125 64.0625 C-20.12675151 56.19655719 -23.1414003 49.76914139 -23.125 40.75 C-23.12628906 40.01209229 -23.12757813 39.27418457 -23.12890625 38.51391602 C-22.99499335 31.45838023 -21.31528633 25.39749838 -18.75 18.8125 C-18.09 18.8125 -17.43 18.8125 -16.75 18.8125 C-16.48832031 18.09191406 -16.22664063 17.37132813 -15.95703125 16.62890625 C-13.31958049 10.47485447 -7.57512578 -0.51648585 0 0 Z " fill="#2C2C2C" transform="translate(325.75,43.1875)"/>
<path d="M0 0 C2.375 0.5 2.375 0.5 4.375 3.5 C4.16355156 8.06879661 2.09596122 10.35746566 -0.875 13.6875 C-5.09530024 18.66597818 -8.09024128 23.5039111 -10.625 29.5 C-11.058125 30.49 -11.49125 31.48 -11.9375 32.5 C-13.91582235 41.13267934 -12.34617752 47.63820587 -8.625 55.5 C-7.7120066 57.44982643 -6.80038881 59.40029239 -5.88891602 61.35083008 C-5.26523164 62.6777398 -4.63570628 64.00192323 -3.99975586 65.32299805 C-0.12314886 73.44241314 1.14057975 81.32855995 -1.8359375 90.046875 C-5.50378976 97.93361836 -10.2000737 105.61769316 -17.625 110.5 C-21.9120229 110.2129771 -21.9120229 110.2129771 -23.625 108.5 C-24.03172147 104.85495187 -24.02239274 103.0757216 -21.91015625 100.015625 C-21.17667969 99.26796875 -20.44320313 98.5203125 -19.6875 97.75 C-16.80259707 94.8748403 -16.80259707 94.8748403 -14.625 91.5 C-13.965 91.5 -13.305 91.5 -12.625 91.5 C-12.480625 90.71625 -12.33625 89.9325 -12.1875 89.125 C-11.625 86.5 -11.625 86.5 -10.625 84.5 C-9.33093786 75.11804945 -13.69413732 67.74688828 -17.625 59.5 C-18.42315274 57.7738176 -19.21632098 56.04530139 -20 54.3125 C-20.29648437 53.67957031 -20.59296875 53.04664063 -20.8984375 52.39453125 C-24.38720435 43.2974779 -23.53845754 32.28584176 -19.625 23.5 C-15.98224594 16.76642431 -12.16520806 10.85736291 -6.625 5.5 C-5.965 4.571875 -5.305 3.64375 -4.625 2.6875 C-2.625 0.5 -2.625 0.5 0 0 Z " fill="#2F2F2F" transform="translate(372.625,54.5)"/>
<path d="M0 0 C2.375 0.75 2.375 0.75 3.375 1.75 C3.625 4.6875 3.625 4.6875 3.375 7.75 C2.385 8.41 1.395 9.07 0.375 9.75 C0.705 7.44 1.035 5.13 1.375 2.75 C-2.28560821 3.33536753 -4.17035164 4.833239 -6.875 7.3125 C-7.58140625 7.95316406 -8.2878125 8.59382813 -9.015625 9.25390625 C-9.54671875 9.74761719 -10.0778125 10.24132813 -10.625 10.75 C-10.625 7.75 -10.625 7.75 -8.3125 5.25 C-7.425625 4.425 -6.53875 3.6 -5.625 2.75 C-5.13 2.13125 -4.635 1.5125 -4.125 0.875 C-2.625 -0.25 -2.625 -0.25 0 0 Z " fill="#8D8D8D" transform="translate(325.625,43.25)"/>
<path d="M0 0 C-1.46307025 3.13515054 -2.6017467 5.34787346 -5.859375 6.8671875 C-8.48201167 8.25507917 -10.19033869 9.99668331 -12.25 12.125 C-12.95640625 12.84945312 -13.6628125 13.57390625 -14.390625 14.3203125 C-14.92171875 14.87460938 -15.4528125 15.42890625 -16 16 C-16.66 15.67 -17.32 15.34 -18 15 C-16.85481752 13.85481752 -15.70931031 12.70995858 -14.5625 11.56640625 C-13.45319134 10.45432432 -12.34959619 9.33653005 -11.25 8.21484375 C-3.15724522 0 -3.15724522 0 0 0 Z " fill="#6E6E6E" transform="translate(251,199)"/>
<path d="M0 0 C1.2065625 0.0309375 1.2065625 0.0309375 2.4375 0.0625 C1.81875 0.145 1.2 0.2275 0.5625 0.3125 C-1.71553678 0.83591441 -1.71553678 0.83591441 -2.4375 2.875 C-4.06371471 6.03708416 -6.58093959 7.24763714 -9.5625 9.0625 C-8.32715298 5.35645893 -6.36514776 3.72501537 -3.5625 1.0625 C-2.5625 0.0625 -2.5625 0.0625 0 0 Z " fill="#8F8F8F" transform="translate(372.5625,54.9375)"/>
<path d="M0 0 C0.33 0.99 0.66 1.98 1 3 C-0.28965176 4.37562854 -1.62689293 5.70766393 -3 7 C-3.66 7 -4.32 7 -5 7 C-3.70700306 4.11562221 -2.34058637 2.12780579 0 0 Z " fill="#6B6B6B" transform="translate(232,215)"/>
<path d="" fill="#FFFFFF" transform="translate(0,0)"/>
</svg>
